<mxfile host="app.diagrams.net" agent="Mozilla/5.0 (Macintosh; Intel Mac OS X 10_15_7) AppleWebKit/537.36 (KHTML, like Gecko) Chrome/131.0.0.0 Safari/537.36" version="26.1.0">
  <diagram id="R2lEEEUBdFMjLlhIrx00" name="Page-1">
    <mxGraphModel dx="795" dy="418" grid="1" gridSize="10" guides="1" tooltips="1" connect="1" arrows="1" fold="1" page="1" pageScale="1" pageWidth="850" pageHeight="1100" math="0" shadow="0" extFonts="Permanent Marker^https://fonts.googleapis.com/css?family=Permanent+Marker">
      <root>
        <mxCell id="0" />
        <mxCell id="1" parent="0" />
        <mxCell id="C-vyLk0tnHw3VtMMgP7b-12" value="" style="edgeStyle=entityRelationEdgeStyle;endArrow=ERzeroToMany;startArrow=ERone;endFill=1;startFill=0;" parent="1" target="C-vyLk0tnHw3VtMMgP7b-17" edge="1">
          <mxGeometry width="100" height="100" relative="1" as="geometry">
            <mxPoint x="700" y="165" as="sourcePoint" />
            <mxPoint x="460" y="205" as="targetPoint" />
          </mxGeometry>
        </mxCell>
        <mxCell id="F0I1lO7PYUHiMKchcRLL-1" value="Inspector" style="swimlane;whiteSpace=wrap;html=1;fillColor=#dae8fc;strokeColor=#6c8ebf;" vertex="1" parent="1">
          <mxGeometry x="120" y="40" width="90" height="90" as="geometry" />
        </mxCell>
        <mxCell id="F0I1lO7PYUHiMKchcRLL-2" value="&lt;u&gt;iid&lt;/u&gt;&lt;div&gt;name&lt;/div&gt;&lt;div&gt;start_date&lt;/div&gt;" style="text;html=1;align=left;verticalAlign=middle;resizable=0;points=[];autosize=1;strokeColor=none;fillColor=none;" vertex="1" parent="F0I1lO7PYUHiMKchcRLL-1">
          <mxGeometry x="10" y="27" width="80" height="60" as="geometry" />
        </mxCell>
        <mxCell id="F0I1lO7PYUHiMKchcRLL-3" value="Theater" style="swimlane;whiteSpace=wrap;html=1;fillColor=#dae8fc;strokeColor=#6c8ebf;" vertex="1" parent="1">
          <mxGeometry x="120" y="240" width="90" height="100" as="geometry" />
        </mxCell>
        <mxCell id="F0I1lO7PYUHiMKchcRLL-4" value="&lt;u&gt;tid&lt;/u&gt;&lt;div&gt;name&lt;/div&gt;&lt;div&gt;address&lt;/div&gt;&lt;div&gt;number&lt;/div&gt;" style="text;html=1;align=left;verticalAlign=middle;resizable=0;points=[];autosize=1;strokeColor=none;fillColor=none;" vertex="1" parent="F0I1lO7PYUHiMKchcRLL-3">
          <mxGeometry x="10" y="27" width="70" height="70" as="geometry" />
        </mxCell>
        <mxCell id="F0I1lO7PYUHiMKchcRLL-5" value="Owner" style="swimlane;whiteSpace=wrap;html=1;fillColor=#dae8fc;strokeColor=#6c8ebf;" vertex="1" parent="1">
          <mxGeometry x="340" y="340" width="80" height="90" as="geometry" />
        </mxCell>
        <mxCell id="F0I1lO7PYUHiMKchcRLL-6" value="&lt;u&gt;oid&lt;/u&gt;&lt;div&gt;name&lt;/div&gt;&lt;div&gt;contact&lt;/div&gt;" style="text;html=1;align=left;verticalAlign=middle;resizable=0;points=[];autosize=1;strokeColor=none;fillColor=none;" vertex="1" parent="F0I1lO7PYUHiMKchcRLL-5">
          <mxGeometry x="10" y="27" width="60" height="60" as="geometry" />
        </mxCell>
        <mxCell id="F0I1lO7PYUHiMKchcRLL-7" value="Inspection" style="swimlane;whiteSpace=wrap;html=1;fillColor=#dae8fc;strokeColor=#6c8ebf;" vertex="1" parent="1">
          <mxGeometry x="340" y="160" width="90" height="90" as="geometry" />
        </mxCell>
        <mxCell id="F0I1lO7PYUHiMKchcRLL-8" value="&lt;u&gt;inid&lt;/u&gt;&lt;div&gt;date&lt;/div&gt;&lt;div&gt;time&lt;/div&gt;" style="text;html=1;align=left;verticalAlign=middle;resizable=0;points=[];autosize=1;strokeColor=none;fillColor=none;" vertex="1" parent="F0I1lO7PYUHiMKchcRLL-7">
          <mxGeometry x="10" y="26" width="50" height="60" as="geometry" />
        </mxCell>
        <mxCell id="F0I1lO7PYUHiMKchcRLL-9" value="Violation" style="swimlane;whiteSpace=wrap;html=1;fillColor=#dae8fc;strokeColor=#6c8ebf;" vertex="1" parent="1">
          <mxGeometry x="540" y="70" width="90" height="90" as="geometry" />
        </mxCell>
        <mxCell id="F0I1lO7PYUHiMKchcRLL-10" value="&lt;u&gt;vcode&lt;/u&gt;&lt;div&gt;desc&lt;/div&gt;&lt;div&gt;penalty&lt;/div&gt;" style="text;html=1;align=left;verticalAlign=middle;resizable=0;points=[];autosize=1;strokeColor=none;fillColor=none;" vertex="1" parent="F0I1lO7PYUHiMKchcRLL-9">
          <mxGeometry x="10" y="27" width="60" height="60" as="geometry" />
        </mxCell>
        <mxCell id="F0I1lO7PYUHiMKchcRLL-11" value="owns" style="rhombus;whiteSpace=wrap;html=1;fillColor=#dae8fc;strokeColor=#6c8ebf;" vertex="1" parent="1">
          <mxGeometry x="220" y="355" width="80" height="60" as="geometry" />
        </mxCell>
        <mxCell id="F0I1lO7PYUHiMKchcRLL-12" value="" style="endArrow=classic;html=1;rounded=0;exitX=1;exitY=0.5;exitDx=0;exitDy=0;entryX=0;entryY=0.5;entryDx=0;entryDy=0;" edge="1" parent="1" source="F0I1lO7PYUHiMKchcRLL-11" target="F0I1lO7PYUHiMKchcRLL-5">
          <mxGeometry width="50" height="50" relative="1" as="geometry">
            <mxPoint x="350" y="270" as="sourcePoint" />
            <mxPoint x="400" y="220" as="targetPoint" />
          </mxGeometry>
        </mxCell>
        <mxCell id="F0I1lO7PYUHiMKchcRLL-13" value="" style="endArrow=none;html=1;rounded=0;entryX=0.5;entryY=1;entryDx=0;entryDy=0;" edge="1" parent="1" source="F0I1lO7PYUHiMKchcRLL-11" target="F0I1lO7PYUHiMKchcRLL-3">
          <mxGeometry width="50" height="50" relative="1" as="geometry">
            <mxPoint x="350" y="270" as="sourcePoint" />
            <mxPoint x="400" y="220" as="targetPoint" />
          </mxGeometry>
        </mxCell>
        <mxCell id="F0I1lO7PYUHiMKchcRLL-14" value="conducts" style="rhombus;whiteSpace=wrap;html=1;fillColor=#dae8fc;strokeColor=#6c8ebf;" vertex="1" parent="1">
          <mxGeometry x="240" y="127" width="80" height="60" as="geometry" />
        </mxCell>
        <mxCell id="F0I1lO7PYUHiMKchcRLL-15" value="" style="endArrow=classic;html=1;rounded=0;entryX=1.01;entryY=0.535;entryDx=0;entryDy=0;entryPerimeter=0;" edge="1" parent="1" source="F0I1lO7PYUHiMKchcRLL-14" target="F0I1lO7PYUHiMKchcRLL-2">
          <mxGeometry width="50" height="50" relative="1" as="geometry">
            <mxPoint x="350" y="270" as="sourcePoint" />
            <mxPoint x="400" y="220" as="targetPoint" />
          </mxGeometry>
        </mxCell>
        <mxCell id="F0I1lO7PYUHiMKchcRLL-16" value="" style="endArrow=none;html=1;rounded=0;entryX=1;entryY=1;entryDx=0;entryDy=0;exitX=0;exitY=0.5;exitDx=0;exitDy=0;" edge="1" parent="1" source="F0I1lO7PYUHiMKchcRLL-7" target="F0I1lO7PYUHiMKchcRLL-14">
          <mxGeometry width="50" height="50" relative="1" as="geometry">
            <mxPoint x="350" y="270" as="sourcePoint" />
            <mxPoint x="400" y="220" as="targetPoint" />
          </mxGeometry>
        </mxCell>
        <mxCell id="F0I1lO7PYUHiMKchcRLL-17" value="discovered" style="rhombus;whiteSpace=wrap;html=1;fillColor=#dae8fc;strokeColor=#6c8ebf;" vertex="1" parent="1">
          <mxGeometry x="450" y="120" width="80" height="60" as="geometry" />
        </mxCell>
        <mxCell id="F0I1lO7PYUHiMKchcRLL-18" value="" style="endArrow=classic;html=1;rounded=0;" edge="1" parent="1" source="F0I1lO7PYUHiMKchcRLL-17">
          <mxGeometry width="50" height="50" relative="1" as="geometry">
            <mxPoint x="350" y="270" as="sourcePoint" />
            <mxPoint x="430" y="190" as="targetPoint" />
          </mxGeometry>
        </mxCell>
        <mxCell id="F0I1lO7PYUHiMKchcRLL-19" value="" style="endArrow=classic;html=1;rounded=0;exitX=1;exitY=0;exitDx=0;exitDy=0;entryX=0;entryY=0.5;entryDx=0;entryDy=0;" edge="1" parent="1" source="F0I1lO7PYUHiMKchcRLL-17" target="F0I1lO7PYUHiMKchcRLL-9">
          <mxGeometry width="50" height="50" relative="1" as="geometry">
            <mxPoint x="490" y="250" as="sourcePoint" />
            <mxPoint x="540" y="200" as="targetPoint" />
          </mxGeometry>
        </mxCell>
        <mxCell id="F0I1lO7PYUHiMKchcRLL-20" value="inspects" style="rhombus;whiteSpace=wrap;html=1;fillColor=#dae8fc;strokeColor=#6c8ebf;" vertex="1" parent="1">
          <mxGeometry x="240" y="240" width="80" height="60" as="geometry" />
        </mxCell>
        <mxCell id="F0I1lO7PYUHiMKchcRLL-21" value="" style="endArrow=classic;html=1;rounded=0;exitX=1;exitY=0;exitDx=0;exitDy=0;entryX=0;entryY=0.75;entryDx=0;entryDy=0;" edge="1" parent="1" source="F0I1lO7PYUHiMKchcRLL-20" target="F0I1lO7PYUHiMKchcRLL-7">
          <mxGeometry width="50" height="50" relative="1" as="geometry">
            <mxPoint x="350" y="270" as="sourcePoint" />
            <mxPoint x="400" y="220" as="targetPoint" />
          </mxGeometry>
        </mxCell>
        <mxCell id="F0I1lO7PYUHiMKchcRLL-22" value="" style="endArrow=none;html=1;rounded=0;entryX=0.188;entryY=0.693;entryDx=0;entryDy=0;entryPerimeter=0;" edge="1" parent="1" target="F0I1lO7PYUHiMKchcRLL-20">
          <mxGeometry width="50" height="50" relative="1" as="geometry">
            <mxPoint x="210" y="300" as="sourcePoint" />
            <mxPoint x="400" y="220" as="targetPoint" />
          </mxGeometry>
        </mxCell>
      </root>
    </mxGraphModel>
  </diagram>
</mxfile>
